<?xml version="1.0" standalone="no"?>
<!DOCTYPE svg PUBLIC "-//W3C//DTD SVG 20010904//EN"
 "http://www.w3.org/TR/2001/REC-SVG-20010904/DTD/svg10.dtd">
<svg version="1.0" xmlns="http://www.w3.org/2000/svg"
 width="1500.000000pt" height="1500.000000pt" viewBox="0 0 1500.000000 1500.000000"
 preserveAspectRatio="xMidYMid meet">

<g transform="translate(0.000000,1500.000000) scale(0.100000,-0.100000)"
fill="#000000" stroke="none">
<path d="M0 7500 l0 -7500 7500 0 7500 0 0 7500 0 7500 -7500 0 -7500 0 0
-7500z m7243 2450 c158 -23 290 -91 407 -209 114 -115 191 -280 206 -441 6
-63 5 -70 -18 -93 -41 -41 -232 -87 -359 -87 -61 0 -72 3 -98 28 -16 15 -40
57 -55 98 -63 170 -145 231 -268 199 -105 -27 -153 -113 -153 -275 0 -155 51
-276 177 -422 l50 -58 120 0 c65 0 127 -4 137 -10 10 -5 24 -23 31 -39 11 -28
9 -36 -19 -87 l-32 -56 130 -134 c145 -149 212 -237 277 -366 134 -266 146
-621 28 -848 -83 -161 -228 -297 -369 -345 -69 -24 -354 -45 -463 -34 -150 16
-293 78 -401 175 -86 78 -198 286 -241 452 -22 83 -26 197 -9 235 17 37 45 45
222 68 237 30 254 22 296 -148 26 -101 49 -150 98 -204 49 -54 100 -79 163
-79 124 0 224 98 245 240 8 58 -17 178 -52 250 -20 39 -72 100 -178 208 l-150
153 -138 2 c-133 2 -140 3 -158 26 -28 35 -23 74 20 144 l38 63 -74 78 c-166
176 -255 342 -299 555 -13 66 -15 116 -11 225 4 122 9 154 36 237 53 164 171
319 303 397 146 87 376 128 561 102z m-2000 -74 c10 -5 25 -23 35 -40 15 -28
17 -89 20 -676 l2 -645 95 -54 c151 -88 151 -128 0 -215 l-90 -52 -5 -645 c-6
-751 0 -709 -96 -729 -73 -15 -340 -9 -371 8 -13 7 -31 27 -40 45 -17 29 -18
86 -23 675 l-5 643 -90 53 c-154 90 -155 129 -3 216 l97 55 3 650 c3 682 4
692 47 711 45 20 379 20 424 0z m4549 -5 c79 -31 167 -97 271 -204 171 -177
188 -222 195 -527 5 -241 -2 -289 -45 -318 -22 -14 -56 -18 -192 -20 -104 -3
-180 0 -203 8 -63 18 -71 42 -78 214 -8 178 -25 230 -96 296 -53 48 -80 60
-141 60 -64 0 -126 -33 -169 -88 -67 -88 -65 -62 -62 -948 l3 -799 22 -55 c23
-56 76 -116 123 -140 14 -7 50 -13 80 -14 94 0 168 53 213 154 17 38 21 76 26
237 l6 193 28 27 27 28 200 0 200 0 27 -28 28 -27 0 -268 c0 -229 -3 -276 -18
-332 -43 -151 -131 -293 -230 -371 -165 -131 -431 -195 -637 -155 -272 53
-535 297 -581 540 -14 73 -12 1961 2 2028 28 135 145 315 261 403 66 51 181
109 245 124 21 6 128 9 238 7 181 -2 205 -4 257 -25z m2443 6 c30 -15 43 -36
60 -92 8 -27 59 -317 114 -644 55 -326 103 -596 106 -600 4 -3 52 -33 108 -66
161 -96 166 -137 27 -215 -44 -25 -80 -51 -80 -58 0 -7 43 -266 95 -575 109
-648 111 -667 95 -725 -18 -68 -46 -76 -265 -75 -105 0 -191 5 -207 11 -48 20
-59 51 -89 260 -48 330 -60 371 -125 398 -42 17 -234 18 -284 1 -45 -16 -75
-70 -90 -162 -28 -169 -71 -403 -81 -432 -6 -18 -22 -42 -36 -53 -24 -19 -40
-20 -234 -20 -205 0 -208 0 -236 24 -25 22 -28 30 -27 83 1 32 47 325 103 652
56 326 101 599 101 607 0 7 -37 35 -82 61 -147 86 -142 122 32 224 l115 67 27
158 c15 88 61 362 103 609 41 248 83 469 91 493 18 49 49 73 108 83 59 11 527
-1 551 -14z m-9629 -12 c15 -12 33 -38 40 -59 14 -40 70 -369 133 -781 108
-703 128 -826 152 -907 22 -75 49 -102 76 -75 24 23 37 92 148 777 57 355 116
711 130 792 47 266 45 263 201 273 60 4 158 5 219 1 171 -10 178 -25 135 -279
-21 -125 -387 -2138 -440 -2417 -59 -316 -65 -336 -116 -358 -17 -8 -116 -12
-309 -12 l-285 0 -30 28 c-40 35 -47 63 -121 477 -33 187 -109 615 -170 950
-284 1576 -273 1509 -248 1558 16 29 12 27 56 43 29 11 83 13 220 12 165 -3
184 -5 209 -23z m2812 -139 c15 -28 17 -87 20 -630 2 -329 0 -602 -5 -607 -4
-4 -18 0 -30 9 l-23 17 -2 626 c-3 661 -3 664 40 585z m6995 2 c8 -18 20 -51
26 -73 10 -40 191 -1103 191 -1124 0 -13 -10 -14 -28 -3 -7 5 -32 125 -62 303
-132 773 -151 886 -157 907 -8 33 13 26 30 -10z m-9608 -62 c17 -59 62 -327
135 -801 29 -181 58 -373 67 -425 16 -106 18 -175 4 -211 -11 -29 -6 -55 -66
336 -111 715 -178 1125 -192 1170 -6 20 -5 20 16 1 12 -11 28 -42 36 -70z
m1211 -35 c-10 -102 -32 -222 -267 -1506 -270 -1473 -245 -1352 -285 -1392
l-32 -33 -289 0 c-216 0 -293 3 -306 13 -14 10 33 13 250 15 286 4 306 7 339
57 27 41 11 -43 454 2388 38 207 74 423 81 479 l12 101 25 -28 c22 -26 24 -34
18 -94z m3924 -224 c32 -83 60 -198 60 -250 0 -18 -7 -42 -15 -54 -39 -55
-390 -118 -440 -79 -19 15 -19 15 13 16 49 0 224 37 286 60 62 24 85 46 95 92
11 49 -6 160 -39 258 -24 71 -26 81 -10 60 11 -14 33 -60 50 -103z m2388 10
c16 -23 40 -69 53 -102 21 -56 23 -77 27 -306 4 -283 1 -300 -66 -318 -54 -15
-344 -14 -379 1 -24 11 -4 14 142 18 185 5 203 10 235 63 18 29 20 52 20 257
0 243 -8 301 -55 393 -29 56 -17 53 23 -6z m-3123 -60 c17 -13 16 -14 -13 -20
-45 -9 -108 -70 -129 -125 -27 -70 -24 -248 5 -321 33 -84 17 -73 -27 18 -87
179 -73 388 29 443 41 21 108 24 135 5z m2420 -86 c0 -8 -14 -18 -30 -23 -48
-12 -111 -73 -142 -136 l-28 -57 -3 -745 c-2 -436 1 -778 7 -825 5 -44 8 -82
5 -84 -10 -10 -33 24 -45 67 -21 70 -21 1608 0 1666 16 47 84 124 126 142 39
18 110 14 110 -5z m-2069 -732 c13 -25 13 -33 0 -61 -28 -64 -32 -66 -64 -35
l-28 27 25 54 c28 59 42 62 67 15z m5317 -251 c33 -44 14 -75 -84 -133 -50
-30 -83 -57 -82 -65 1 -8 45 -271 98 -585 55 -324 97 -601 97 -642 2 -133 -25
-146 -293 -141 -232 4 -261 23 -36 23 101 0 178 5 204 13 101 30 100 69 -22
799 -53 312 -97 574 -98 582 -1 9 28 32 68 56 55 32 74 50 90 82 22 47 30 48
58 11z m-7249 6 c17 -17 21 -70 7 -92 -4 -8 -49 -37 -100 -66 l-92 -52 1 -580
c0 -605 -7 -735 -38 -766 -24 -24 -158 -40 -277 -33 -163 10 -168 19 -14 25
172 8 212 21 244 85 19 39 20 63 23 677 l3 638 90 52 c73 43 93 59 106 90 19
42 25 45 47 22z m1362 -259 c17 -13 11 -14 -63 -15 -106 0 -140 13 -53 21 36
3 72 6 81 7 8 1 24 -5 35 -13z m934 -157 c100 -210 128 -413 89 -643 -25 -145
-111 -299 -229 -408 -82 -76 -163 -121 -256 -143 -83 -19 -464 -25 -503 -8
-19 8 18 12 170 17 203 7 255 15 353 60 161 74 311 249 377 440 72 210 57 521
-36 724 -27 59 -28 63 -19 63 3 0 27 -46 54 -102z m2477 -70 c14 -28 17 -66
16 -273 0 -227 -1 -245 -26 -337 -79 -296 -275 -467 -599 -524 -104 -18 -242
-14 -318 9 -43 13 -41 14 60 9 248 -11 488 75 631 225 164 173 226 408 203
776 -7 114 -6 147 3 147 7 0 20 -15 30 -32z m-3452 -259 c17 -32 57 -181 50
-187 -12 -12 -85 180 -85 223 0 13 21 -7 35 -36z m5142 -126 c11 -5 -16 -12
-75 -19 -133 -17 -151 -38 -178 -201 -40 -248 -74 -413 -89 -437 -9 -14 -32
-30 -52 -37 -48 -16 -407 -9 -425 9 -9 9 22 12 158 12 245 0 256 8 299 221 15
68 34 181 45 251 20 141 33 176 70 195 27 14 215 18 247 6z m-2506 -1243 c58
-11 91 -36 119 -90 10 -19 39 -54 64 -77 51 -47 59 -78 26 -108 -20 -18 -22
-18 -63 3 -23 12 -54 32 -70 44 -27 22 -29 22 -145 10 -177 -19 -301 -47 -329
-75 -20 -20 -32 -70 -92 -402 -39 -209 -83 -466 -99 -570 -30 -191 -58 -284
-112 -372 -23 -39 -39 -41 -68 -10 -19 21 -24 42 -33 163 -15 196 -8 279 66
708 36 209 65 390 65 403 0 35 -18 36 -116 12 -109 -26 -152 -27 -192 -4 -33
20 -72 81 -72 112 0 59 118 97 621 197 243 49 295 58 360 64 9 1 40 -3 70 -8z
m-5718 -144 c71 -29 117 -121 97 -195 -13 -51 -56 -93 -89 -89 -29 3 -29 5
-10 95 20 96 5 100 -73 21 -79 -79 -93 -120 -93 -263 0 -92 3 -106 35 -179 20
-44 40 -81 47 -83 6 -2 40 19 76 47 117 89 133 51 32 -75 -35 -44 -66 -87 -68
-95 -2 -9 9 -59 26 -111 42 -134 44 -272 4 -414 -44 -159 -54 -175 -131 -214
-59 -30 -73 -33 -124 -28 -71 6 -148 43 -191 92 -60 68 -65 120 -26 244 51
160 121 284 209 371 30 28 46 53 46 68 0 14 -23 64 -50 112 -116 202 -121 443
-13 602 58 84 206 132 296 94z m7063 -188 c77 -53 89 -131 32 -223 -20 -33
-57 -120 -82 -192 l-45 -133 27 -14 c38 -20 65 -53 59 -70 -3 -8 -23 -18 -44
-22 -59 -10 -79 -28 -103 -91 -47 -124 -67 -327 -35 -353 36 -29 143 35 222
133 68 85 115 165 159 271 42 101 105 200 147 230 65 47 219 10 261 -63 38
-66 21 -177 -41 -258 -47 -62 -99 -93 -154 -93 -39 0 -51 -4 -63 -22 -21 -33
-37 -131 -29 -184 8 -57 27 -69 83 -50 94 32 164 105 300 311 88 134 137 195
156 195 38 0 -4 -89 -127 -270 -139 -205 -259 -328 -343 -351 -91 -25 -226
107 -245 240 l-6 46 -35 -50 c-109 -159 -245 -249 -318 -211 -37 19 -95 84
-124 138 -20 38 -23 57 -23 165 0 67 -1 121 -1 120 -1 -1 -36 -49 -79 -105
-42 -57 -94 -124 -117 -148 -44 -48 -44 -45 -4 -139 37 -87 35 -116 -14 -158
-41 -35 -97 -57 -144 -57 -40 0 -114 39 -140 74 -54 72 -44 130 36 208 32 32
58 64 58 71 0 8 -9 26 -20 40 -28 35 -67 124 -76 170 l-6 38 -74 -123 c-130
-219 -211 -298 -291 -283 -54 10 -115 75 -143 153 -13 34 -27 61 -33 59 -5 -1
-22 -38 -37 -81 -37 -105 -78 -147 -149 -154 -40 -4 -56 -1 -71 13 -33 30 -69
100 -86 167 -30 116 1 336 64 452 32 59 102 122 151 136 48 13 145 13 191 -1
33 -10 43 -9 79 12 l41 23 27 -20 c65 -48 87 -116 68 -204 -84 -381 -91 -427
-72 -454 12 -17 16 -16 58 16 65 50 237 326 280 451 41 120 163 175 292 131
58 -20 87 -54 87 -105 0 -46 -26 -70 -103 -94 -29 -10 -69 -28 -89 -41 -71
-46 -74 -142 -7 -219 36 -41 47 -38 115 32 48 49 214 268 214 281 0 5 -25 26
-55 46 -30 20 -55 41 -55 46 0 24 49 42 98 35 35 -5 51 -3 59 7 10 13 42 98
110 293 37 104 60 154 100 218 28 44 60 49 109 15z m-5157 -43 c68 -58 91
-137 58 -202 -74 -145 -232 -702 -239 -844 -4 -85 13 -88 90 -15 67 64 127
161 222 360 81 168 111 206 165 206 30 0 45 -8 76 -39 56 -55 54 -100 -6 -215
-48 -89 -105 -250 -105 -293 0 -19 4 -24 22 -21 16 2 60 59 160 207 76 113
149 229 163 259 57 123 138 182 253 182 35 0 83 -5 107 -11 39 -10 48 -9 79
10 33 21 37 21 65 7 16 -9 38 -30 50 -49 34 -55 35 -101 7 -212 -54 -218 -80
-388 -60 -408 12 -11 61 22 105 71 24 27 73 100 108 163 35 63 76 134 91 159
16 25 42 80 60 123 18 42 35 77 40 77 4 0 11 11 14 25 14 55 97 35 143 -35 33
-48 29 -95 -17 -206 -58 -140 -52 -161 21 -71 123 151 216 227 277 227 98 0
128 -96 77 -240 -34 -96 -85 -253 -85 -262 0 -5 6 -8 14 -8 17 0 52 57 157
254 41 76 89 156 107 177 35 40 62 51 62 23 0 -20 -253 -523 -281 -559 -12
-14 -33 -31 -47 -36 -21 -8 -31 -4 -66 25 -23 18 -54 57 -70 85 -25 47 -27 59
-23 124 5 76 20 170 32 200 12 29 -23 20 -55 -15 -41 -45 -100 -163 -146 -288
-44 -122 -56 -140 -97 -140 -23 0 -42 11 -77 48 -69 72 -94 130 -87 203 l5 60
-58 -88 c-61 -94 -132 -167 -177 -184 -84 -32 -164 40 -216 194 -11 32 -25 17
-47 -50 -42 -127 -87 -173 -168 -173 -33 0 -49 6 -68 25 -55 55 -104 220 -90
306 3 21 4 39 1 39 -8 0 -135 -200 -183 -288 -35 -65 -52 -87 -77 -98 -48 -20
-94 -3 -145 52 -49 53 -70 100 -73 160 -1 24 -3 44 -4 44 0 0 -13 -20 -27 -44
-43 -73 -115 -154 -160 -181 -72 -42 -133 -30 -194 40 -42 47 -47 70 -47 197
0 60 -1 108 -2 108 -5 0 -131 -205 -169 -275 -55 -101 -82 -122 -143 -105 -56
15 -126 95 -147 168 -13 45 -15 67 -7 111 l10 55 -31 -39 c-184 -232 -306
-300 -400 -226 -83 66 -108 119 -114 243 l-5 97 -72 -112 c-40 -62 -90 -143
-110 -182 -46 -84 -62 -104 -95 -117 -56 -21 -150 45 -191 136 -35 77 -17 208
51 381 71 180 130 235 207 192 34 -19 73 -77 73 -109 0 -15 -27 -83 -59 -150
-50 -103 -101 -249 -101 -288 0 -18 36 -10 57 13 24 26 288 422 325 487 47 81
107 120 185 120 43 0 68 -13 116 -58 59 -57 46 -122 -22 -107 -27 6 -33 2 -61
-37 -78 -106 -120 -224 -120 -335 0 -58 3 -75 16 -80 25 -9 95 30 162 92 78
72 249 283 288 354 63 118 119 141 189 80 64 -56 63 -109 -6 -234 -40 -75 -99
-240 -99 -282 0 -19 4 -24 22 -21 16 2 57 54 151 193 148 219 177 274 177 336
0 28 20 103 53 199 121 350 157 401 236 335z m-1477 -179 c25 -19 48 -42 52
-51 12 -32 6 -75 -14 -95 -22 -22 -124 -54 -146 -46 -19 7 -53 83 -54 118 -1
105 76 139 162 74z m1037 -14 c57 -54 64 -83 30 -126 -21 -27 -118 -62 -144
-52 -29 11 -55 69 -55 122 0 69 26 104 80 104 31 0 46 -8 89 -48z m878 19 c78
-57 92 -103 45 -151 -35 -34 -126 -58 -150 -38 -24 20 -42 73 -42 121 0 94 69
125 147 68z m-3495 -384 c20 -8 41 -25 48 -36 9 -18 7 -25 -16 -46 -42 -39
-84 -45 -299 -45 -172 0 -206 3 -240 19 -107 48 -71 109 74 122 130 12 391 4
433 -14z m10098 1 c71 -30 73 -69 7 -105 -27 -15 -64 -19 -238 -21 -225 -4
-275 3 -316 44 -29 29 -27 40 10 68 35 26 138 35 347 31 109 -2 165 -7 190
-17z"/>
<path d="M11914 8540 c-39 -15 -74 -168 -98 -426 -9 -86 7 -99 119 -99 69 0
87 4 105 20 20 18 21 26 15 85 -10 96 -62 365 -74 389 -16 28 -42 40 -67 31z
m70 -191 c8 -37 10 -76 6 -98 -5 -20 -13 -69 -20 -108 -11 -70 -13 -73 -39
-73 -28 0 -28 1 -24 53 10 122 47 306 60 294 2 -3 10 -33 17 -68z"/>
<path d="M9301 6069 c-96 -21 -176 -41 -179 -44 -18 -18 33 -15 226 14 119 18
224 36 232 39 17 6 -53 31 -85 30 -11 0 -98 -18 -194 -39z"/>
<path d="M8900 5509 c-6 -45 -9 -84 -5 -87 12 -13 25 24 25 73 0 28 3 60 6 73
4 12 2 22 -4 22 -5 0 -15 -36 -22 -81z"/>
<path d="M3648 5041 c-46 -50 -67 -91 -108 -210 -28 -82 -31 -105 -28 -173 2
-64 7 -83 22 -93 23 -17 56 -3 100 44 58 60 97 343 62 440 l-12 33 -36 -41z"/>
<path d="M9478 5208 c-103 -99 -138 -179 -152 -343 -8 -89 3 -109 39 -75 75
70 237 419 215 461 -17 30 -33 23 -102 -43z"/>
<path d="M10101 5254 c0 -11 3 -14 6 -6 3 7 2 16 -1 19 -3 4 -6 -2 -5 -13z"/>
<path d="M10661 5234 c0 -11 3 -14 6 -6 3 7 2 16 -1 19 -3 4 -6 -2 -5 -13z"/>
<path d="M11418 5223 c-41 -49 -99 -146 -94 -159 5 -13 12 -12 47 8 54 30 82
71 83 121 1 45 -13 56 -36 30z"/>
<path d="M10159 4640 c-42 -38 -43 -40 -25 -55 55 -42 125 14 100 79 -10 25
-28 19 -75 -24z"/>
<path d="M6673 5238 c-130 -112 -183 -226 -183 -394 0 -36 5 -66 11 -70 30
-18 142 171 214 358 51 135 36 173 -42 106z"/>
</g>
</svg>
